<?xml version="1.0" encoding="utf-8"?>
<!-- Generator: Adobe Illustrator 27.5.0, SVG Export Plug-In . SVG Version: 6.00 Build 0)  -->
<svg version="1.1" id="Layer_1" xmlns="http://www.w3.org/2000/svg" xmlns:xlink="http://www.w3.org/1999/xlink" x="0px" y="0px"
	 viewBox="0 0 16 16" style="enable-background:new 0 0 16 16;" xml:space="preserve">
<style type="text/css">
	.st0{fill:#74CDDD;}
	.st1{fill:#6FCCDA;}
	.st2{fill:#6FCCDC;}
	.st3{fill:#F0CD9F;}
	.st4{fill:#F0CD9D;}
	.st5{fill:#EFCC9E;}
	.st6{fill:#FDFEFF;}
	.st7{fill:#050505;}
	.st8{fill:#121919;}
	.st9{fill:#121617;}
	.st10{fill:#333230;}
	.st11{fill:#101213;}
	.st12{fill:#010101;}
	.st13{fill:#070707;}
	.st14{fill:#F3D0A1;}
	.st15{fill:#F7F8F8;}
	.st16{fill:#E4E4E4;}
	.st17{fill:#080808;}
</style>
<path class="st0" d="M4.3,1.5c0,0,0.1,0,0.1,0c0.6-0.6,1.4-0.8,2.2-1C7,0.5,7.4,0.4,7.8,0.4c1.1,0,2.2,0,3.1,0.6
	c0.7,0.4,1.1,1,1.3,1.8c0.3,1.2,0.4,2.4,0.4,3.6c0,0.9,0.1,1.9,0.1,2.8c0,1.2,0.1,2.4-0.3,3.6c-0.2,0.6-0.5,1.1-1,1.6c0,0,0,0,0,0
	c-0.1,0-0.1,0.1-0.2,0.1c0,0,0,0,0,0c-0.1,0.1-0.3,0.2-0.4,0.2c-0.8,0.4-1.6,0.6-2.5,0.6c-0.9,0.1-1.8,0-2.6-0.3
	c-0.3-0.1-0.6-0.3-0.9-0.4c0,0,0,0,0,0c-0.1-0.1-0.1-0.1-0.2-0.1c0,0,0,0,0,0c0,0-0.1-0.1-0.1-0.1c0,0,0,0,0,0
	C4.3,14.2,4.1,14,4,13.8c-0.4-0.5-0.5-1-0.6-1.6c-0.1-1,0-2.1,0.1-3.1c0-0.7,0-1.3,0-2c0-0.7-0.1-1.4-0.1-2.2c0-0.8,0.1-1.5,0.4-2.2
	C3.8,2.4,4,2.1,4.1,1.8c0,0,0,0,0,0C4.2,1.8,4.2,1.7,4.3,1.5C4.3,1.6,4.3,1.6,4.3,1.5 M8.6,5c0.3,0,0.4,0,0.5-0.2
	c0.1-0.2,0-0.4-0.1-0.5C8.8,4.1,8.7,4,8.6,3.9c0-0.2-0.1-0.3-0.2-0.4c-0.2-0.1-0.5-0.1-0.7,0C7.4,3.6,7.3,3.7,7.3,3.9
	C7.2,4,7.1,4,7.1,4C6.9,4.1,6.8,4.4,6.8,4.6C6.8,4.8,7,4.9,7.2,5c0,0.1,0,0.3,0,0.4C7.3,5.8,7.5,6,7.9,5.6c0,0,0.1,0.1,0.1,0.1
	c0.1,0.1,0.2,0.2,0.4,0.1c0.1-0.1,0.2-0.2,0.2-0.3C8.5,5.3,8.5,5.1,8.6,5 M8.5,1.7C8,2.1,8,2.8,8.3,3.3c0.4,0.5,0.9,0.7,1.5,0.6
	c0.5-0.1,1-0.3,1.2-0.9c0.2-0.5,0.1-1-0.3-1.4C10.3,1.1,9.8,1,9.2,1.2C9,1.2,8.8,1.3,8.6,1.6C8.6,1.6,8.5,1.6,8.5,1.7 M7.3,3.3
	c0.4-0.7,0.2-1.5-0.4-1.8C6.4,1.2,5.9,1.2,5.4,1.4C4.9,1.6,4.6,1.9,4.5,2.5C4.5,3,4.7,3.5,5.1,3.8C5.7,4.1,6.8,4.1,7.3,3.3z"/>
<path class="st1" d="M12.1,2.2c0.1-0.1,0.1-0.3,0-0.4c-0.1-0.1-0.2-0.2-0.3-0.2c-0.1,0-0.1,0-0.2-0.1c-0.1-0.1-0.2-0.2-0.3-0.3
	c0.2-0.2,0.6-0.3,1-0.2c0.4,0.2,0.7,0.6,0.7,1c0,0.4-0.3,0.7-0.7,0.8C12.2,2.7,12.2,2.5,12.1,2.2z"/>
<path class="st2" d="M4.3,1.5C4.3,1.6,4.3,1.6,4.3,1.5C4.2,1.7,4.2,1.8,4.1,1.8c0,0,0,0,0,0C4.1,1.9,4,1.9,3.9,1.9
	C3.5,1.9,3.4,1.9,3.4,2.1c-0.1,0.2,0,0.3,0.3,0.5C3.6,2.8,3.5,3,3.4,3.2C3.1,3,2.9,2.8,2.8,2.5C2.7,2.2,2.8,1.9,3,1.6
	c0.3-0.4,0.8-0.4,1.3-0.2C4.4,1.4,4.4,1.4,4.3,1.5z"/>
<path class="st3" d="M4.9,14.7C4.9,14.7,4.9,14.7,4.9,14.7c0.2,0.2,0.3,0.2,0.3,0.2c-0.3,0.2-0.6,0.4-0.9,0.6
	c-0.1,0-0.2,0.1-0.3,0.1c-0.2,0-0.2-0.2-0.1-0.4c0,0,0-0.1,0.1-0.1c0,0,0-0.1,0-0.1c0,0,0,0,0,0c0,0,0,0.1-0.1,0.1c0,0,0,0.1,0,0.1
	c0,0.1-0.1,0.2-0.2,0.3c-0.1-0.1-0.1-0.3-0.1-0.4c0.1-0.3,0.4-0.4,0.7-0.6c0,0,0.1,0,0.1,0c0,0,0,0,0,0c0,0,0.1,0.1,0.1,0.1
	c0,0,0,0,0,0C4.7,14.6,4.8,14.6,4.9,14.7C4.9,14.7,4.9,14.7,4.9,14.7z"/>
<path class="st4" d="M11.4,14.4c0.1,0,0.1,0,0.2-0.1c0.2,0.2,0.4,0.4,0.6,0.6c0.1,0.2,0,0.3-0.1,0.4C12,15.2,12,15.1,11.9,15
	c0,0,0,0,0,0c0,0.1,0.1,0.2,0.1,0.4c-0.1,0.1-0.3,0.1-0.4,0c-0.1-0.1-0.2-0.2-0.3-0.3c-0.1-0.1-0.2-0.3-0.3-0.4
	c0.1-0.1,0.2-0.1,0.3-0.2c0,0,0,0,0,0C11.3,14.5,11.4,14.4,11.4,14.4C11.4,14.4,11.4,14.4,11.4,14.4 M11.8,15
	C11.8,15,11.8,15,11.8,15C11.8,15,11.8,14.9,11.8,15C11.8,15,11.8,15,11.8,15z"/>
<path class="st5" d="M2.8,8.1C3.1,8,3.2,7.9,3.4,8c0,0.2,0,0.4,0,0.5c0,0,0,0.1,0,0.1C3.2,8.7,3,8.8,2.8,8.8c-0.1,0-0.2,0-0.2-0.1
	c0,0,0-0.1,0-0.2c0,0-0.1,0-0.2-0.1c0-0.1,0.1-0.2,0.1-0.3C2.6,8.2,2.7,8.1,2.8,8.1 M2.6,8.5C2.6,8.5,2.7,8.6,2.6,8.5
	C2.7,8.5,2.7,8.5,2.6,8.5C2.7,8.5,2.7,8.5,2.6,8.5z"/>
<path class="st5" d="M13.4,8.5c0,0.1,0.1,0.1,0.1,0.2c0,0.1-0.1,0.1-0.2,0.1c-0.2-0.1-0.3-0.1-0.5-0.2c0,0,0,0,0-0.1
	c0-0.2,0-0.4,0-0.6c0.2-0.1,0.8,0.2,0.9,0.4c0,0.1,0,0.1,0,0.2C13.6,8.5,13.5,8.5,13.4,8.5C13.4,8.5,13.3,8.5,13.4,8.5
	C13.3,8.5,13.3,8.5,13.4,8.5C13.3,8.5,13.3,8.5,13.4,8.5z"/>
<path class="st6" d="M8.5,1.7c0,0,0.1-0.1,0.1-0.1c0.1,0,0.1-0.1,0.2-0.1c0.4-0.3,0.9-0.3,1.3-0.2c0.9,0.3,1.2,1.5,0.5,2.1
	c-0.4,0.4-0.9,0.5-1.4,0.4C8.4,3.6,7.8,2.7,8.4,1.8C8.4,1.8,8.5,1.7,8.5,1.7 M8.9,3c0.2,0,0.3-0.1,0.4-0.3c0.1-0.2,0-0.4-0.2-0.5
	C8.9,2.1,8.7,2.1,8.6,2.3C8.5,2.4,8.4,2.6,8.5,2.8C8.5,2.9,8.7,3,8.9,3z"/>
<path class="st7" d="M7.3,3.9c0-0.2,0.1-0.3,0.3-0.4c0.2-0.1,0.5-0.1,0.7,0c0.2,0.1,0.3,0.2,0.2,0.4c0,0,0,0,0,0.1
	C8.2,4.3,7.6,4.3,7.3,3.9C7.3,4,7.3,3.9,7.3,3.9z"/>
<path class="st8" d="M7.2,3.3C6.8,4.1,5.7,4.1,5.1,3.8C4.7,3.5,4.5,3,4.5,2.5c0.1-0.5,0.4-0.9,0.9-1.1c0.5-0.2,1-0.2,1.4,0.1
	C7.5,1.9,7.6,2.6,7.2,3.3 M6.5,3.9c0,0,0.1,0,0.1,0C7.5,3.5,7.7,2.3,7,1.7C6.6,1.3,6.1,1.3,5.6,1.4c-0.5,0.1-0.9,0.5-1,1
	C4.5,3,4.7,3.4,5.2,3.7C5.6,4,6,4,6.5,3.9z"/>
<path class="st9" d="M8.5,1.7c0,0,0,0.1-0.1,0.1c-0.6,0.9,0,1.8,0.8,1.9c0.5,0.1,1,0,1.4-0.4c0.7-0.6,0.4-1.8-0.5-2.1
	C9.7,1.1,9.2,1.2,8.8,1.4c-0.1,0-0.1,0.1-0.2,0.1C8.8,1.3,9,1.2,9.2,1.2c0.5-0.1,1-0.1,1.4,0.4C11.1,1.9,11.2,2.4,11,3
	c-0.2,0.5-0.6,0.8-1.2,0.9C9.2,3.9,8.7,3.8,8.3,3.3C8,2.8,8,2.1,8.5,1.7z"/>
<path class="st10" d="M8.5,4C8.5,4,8.5,4,8.5,4C8.7,4,8.8,4.1,9,4.2c0.2,0.2,0.2,0.3,0.1,0.5C9,4.9,8.8,5,8.6,5c0,0-0.1,0-0.1,0
	c-0.2,0-0.3-0.1-0.5-0.1c0,0-0.1,0-0.1,0C7.6,4.9,7.5,4.9,7.3,5c0,0,0,0-0.1,0C7,4.9,6.8,4.8,6.8,4.6c0-0.2,0.1-0.5,0.3-0.6
	C7.1,4,7.2,4,7.3,3.9c0,0,0,0,0,0.1C7.2,4.1,7.1,4.1,7,4.2c-0.1,0.2-0.1,0.3,0,0.5c0.1,0.2,0.3,0.2,0.4,0.1c0.4-0.2,0.8-0.2,1.2,0
	C8.8,5,8.9,4.9,9,4.7C9.1,4.6,9.1,4.4,9,4.3C8.8,4.2,8.7,4.1,8.5,4z"/>
<path class="st11" d="M8.5,4.9C8.5,4.9,8.5,4.9,8.5,4.9c0.1,0.2,0.1,0.4,0.1,0.5c0,0.2-0.1,0.3-0.2,0.3C8.2,5.9,8.1,5.8,8,5.7
	c0,0-0.1-0.1-0.1-0.1C7.5,6,7.3,5.8,7.2,5.4c0-0.1,0-0.2,0-0.4c0,0,0,0,0.1,0c0,0.2,0,0.4,0.1,0.6c0,0.1,0.2,0.1,0.2,0.1
	c0.1-0.1,0.2-0.1,0.2-0.2c0-0.2,0-0.4,0-0.7c0,0,0,0,0.1,0c0,0.2,0,0.4,0,0.6c0,0.1,0.2,0.3,0.3,0.3c0.1,0,0.3-0.1,0.3-0.3
	C8.5,5.3,8.5,5.1,8.5,4.9z"/>
<path class="st12" d="M4.9,14.7c-0.1,0-0.2-0.1-0.2-0.1C4.7,14.6,4.8,14.6,4.9,14.7z"/>
<path class="st12" d="M4.1,1.8c0-0.1,0.1-0.1,0.1-0.2C4.2,1.7,4.2,1.8,4.1,1.8z"/>
<path class="st12" d="M11.4,14.4c0,0.1-0.1,0.1-0.2,0.2C11.3,14.4,11.3,14.4,11.4,14.4z"/>
<path class="st12" d="M4.7,14.5c-0.1,0-0.1,0-0.2-0.1C4.6,14.5,4.6,14.5,4.7,14.5z"/>
<path class="st12" d="M4,15.1C4,15.1,4.1,15,4,15.1C4.1,15,4.1,15,4,15.1C4.1,15,4.1,15.1,4,15.1C4,15.1,4,15.1,4,15.1z"/>
<path class="st12" d="M4,15.2C4,15.2,4,15.1,4,15.2C4,15.1,4,15.1,4,15.2C4,15.1,4,15.2,4,15.2C4,15.2,4,15.2,4,15.2z"/>
<path class="st12" d="M11.8,15C11.8,15,11.8,15,11.8,15C11.8,14.9,11.8,15,11.8,15C11.8,15,11.8,15,11.8,15z"/>
<path class="st12" d="M2.6,8.5C2.7,8.5,2.7,8.5,2.6,8.5C2.7,8.5,2.7,8.5,2.6,8.5C2.7,8.6,2.6,8.5,2.6,8.5z"/>
<path class="st12" d="M13.4,8.5C13.3,8.5,13.3,8.5,13.4,8.5C13.3,8.5,13.3,8.5,13.4,8.5C13.3,8.5,13.4,8.5,13.4,8.5
	C13.4,8.5,13.4,8.5,13.4,8.5z"/>
<path class="st13" d="M8.9,3C8.7,3,8.5,2.9,8.5,2.8c-0.1-0.2,0-0.4,0.1-0.5c0.1-0.1,0.3-0.1,0.5-0.1c0.2,0.1,0.3,0.3,0.2,0.5
	C9.2,2.9,9.1,3,8.9,3 M9.1,2.8c0-0.1,0-0.1,0-0.2c0,0-0.1,0-0.1,0C9,2.6,9,2.7,9,2.7C9,2.8,9.1,2.8,9.1,2.8z"/>
<path class="st14" d="M8.5,4C8.7,4.1,8.8,4.2,9,4.3C9.1,4.4,9.1,4.6,9,4.7C8.9,4.9,8.8,5,8.6,4.9c-0.4-0.2-0.8-0.2-1.2,0
	C7.2,4.9,7.1,4.9,6.9,4.7C6.8,4.6,6.8,4.4,7,4.2C7.1,4.1,7.2,4.1,7.3,4C7.6,4.3,8.2,4.3,8.5,4z"/>
<path class="st6" d="M6.5,3.9C6,4,5.6,4,5.2,3.7C4.7,3.4,4.5,3,4.6,2.4c0.1-0.6,0.5-0.9,1-1c0.5-0.1,1-0.1,1.4,0.3
	c0.7,0.6,0.5,1.8-0.4,2.1C6.6,3.8,6.5,3.8,6.5,3.9 M5.4,2.3C5.2,2.2,5,2.3,4.9,2.6C4.8,2.8,5,3.1,5.2,3.1c0.2,0.1,0.4,0,0.5-0.3
	C5.8,2.7,5.7,2.4,5.4,2.3z"/>
<path class="st15" d="M8.5,4.9c0,0.2,0,0.3,0,0.5c0,0.2-0.1,0.3-0.3,0.3c-0.1,0-0.3-0.2-0.3-0.3c0-0.2,0-0.4,0-0.6
	C8.1,4.8,8.3,4.9,8.5,4.9z"/>
<path class="st15" d="M7.8,4.8c0,0.2,0,0.4,0,0.7c0,0.1-0.1,0.2-0.2,0.2c0,0-0.2-0.1-0.2-0.1C7.3,5.4,7.2,5.2,7.3,5
	C7.5,4.9,7.6,4.9,7.8,4.8z"/>
<path class="st16" d="M9.1,2.8C9.1,2.8,9,2.8,9,2.7c0,0,0-0.1,0.1-0.1c0,0,0.1,0,0.1,0C9.1,2.7,9.1,2.7,9.1,2.8z"/>
<path class="st17" d="M5.4,2.3c0.2,0.1,0.3,0.4,0.3,0.6C5.6,3.1,5.4,3.2,5.2,3.1C5,3.1,4.8,2.8,4.9,2.6C5,2.3,5.2,2.2,5.4,2.3
	 M5.5,2.7c-0.1,0-0.1,0-0.2,0c0,0,0,0.1,0,0.1c0,0,0.1,0,0.1,0C5.5,2.9,5.6,2.8,5.5,2.7z"/>
<path class="st15" d="M5.6,2.7c0,0.1,0,0.1,0,0.2c0,0-0.1,0-0.1,0c0,0,0-0.1,0-0.1C5.4,2.7,5.5,2.7,5.6,2.7z"/>
</svg>
